<svg xmlns="http://www.w3.org/2000/svg" xmlns:xlink="http://www.w3.org/1999/xlink" version="1.1" x="0px" y="0px" viewBox="0 0 512 640" enable-background="new 0 0 512 512" xml:space="preserve"><g><g><g><path d="M255.937,457.368c-1.591,0-3.118-0.632-4.243-1.758c-26.73-26.729-53.144-50.354-78.687-73.2     c-38.18-34.149-74.244-66.404-99.88-99.801c-28.739-37.438-42.125-73.188-42.125-112.51c0-63.669,51.798-115.467,115.466-115.467     c56.013,0,84.496,28.428,109.468,75.035c24.973-46.607,53.456-75.035,109.467-75.035c63.738,0,115.594,51.798,115.594,115.467     c0,39.304-13.387,75.041-42.13,112.465c-25.638,33.382-61.697,65.619-99.874,99.748c-25.587,22.876-52.046,46.529-78.814,73.298     C259.055,456.736,257.528,457.368,255.937,457.368z M146.469,66.632c-57.051,0-103.466,46.415-103.466,103.467     c0,79.934,60.901,134.405,138.004,203.367c24.319,21.751,49.422,44.203,74.93,69.439c25.547-25.274,50.697-47.759,75.06-69.539     c77.102-68.929,138.001-123.373,138.001-203.267c0-57.052-46.472-103.467-103.594-103.467     c-47.774,0-75.016,20.616-104.101,78.784c-1.017,2.033-3.094,3.316-5.367,3.316c-2.272,0-4.35-1.284-5.367-3.316     C221.486,87.248,194.245,66.632,146.469,66.632z"/></g></g></g><text x="0" y="527" fill="#000000" font-size="5px" font-weight="bold" font-family="'Helvetica Neue', Helvetica, Arial-Unicode, Arial, Sans-serif">Created by Flatart</text><text x="0" y="532" fill="#000000" font-size="5px" font-weight="bold" font-family="'Helvetica Neue', Helvetica, Arial-Unicode, Arial, Sans-serif">from the Noun Project</text></svg>