<svg xmlns="http://www.w3.org/2000/svg" xmlns:xlink="http://www.w3.org/1999/xlink" version="1.1" x="0px" y="0px" viewBox="0 0 512 640" enable-background="new 0 0 512 512" xml:space="preserve"><g><g><g><path d="M400,449c-0.448,0-0.9-0.05-1.35-0.153l-91.245-21.058C290.733,432.575,273.448,435,256,435     c-102.561,0-186-83.439-186-186S153.439,63,256,63s186,83.439,186,186c0,53.405-22.783,103.876-62.679,139.227l26.045,52.09     c1.039,2.078,0.785,4.569-0.652,6.396C403.562,448.176,401.814,449,400,449z M307.229,415.591c0.452,0,0.905,0.051,1.35,0.153     l80.358,18.545l-22.435-44.869c-1.24-2.48-0.619-5.487,1.501-7.273C407.403,348.969,430,300.438,430,249     c0-95.944-78.056-174-174-174c-95.944,0-174,78.056-174,174c0,95.944,78.056,174,174,174c16.826,0,33.488-2.409,49.523-7.162     C306.079,415.674,306.653,415.591,307.229,415.591z"/></g></g></g><text x="0" y="527" fill="#000000" font-size="5px" font-weight="bold" font-family="'Helvetica Neue', Helvetica, Arial-Unicode, Arial, Sans-serif">Created by Flatart</text><text x="0" y="532" fill="#000000" font-size="5px" font-weight="bold" font-family="'Helvetica Neue', Helvetica, Arial-Unicode, Arial, Sans-serif">from the Noun Project</text></svg>