<svg xmlns="http://www.w3.org/2000/svg" xmlns:xlink="http://www.w3.org/1999/xlink" version="1.1" x="0px" y="0px" viewBox="0 0 512 640" enable-background="new 0 0 512 512" xml:space="preserve"><g><g><g><path d="M420.001,486c-1.524,0-3.025-0.581-4.167-1.682L250,324.337L84.166,484.318c-1.732,1.672-4.296,2.146-6.512,1.204     C75.438,484.581,74,482.407,74,480V40c0-3.313,2.687-6,6-6h340c3.313,0,6,2.687,6,6v440c0,2.407-1.438,4.581-3.654,5.522     C421.589,485.844,420.792,486,420.001,486z M250,310c1.502,0,3.003,0.561,4.166,1.682L414,465.875V46H86v419.875l159.834-154.193     C246.997,310.561,248.498,310,250,310z"/></g></g></g><text x="0" y="527" fill="#000000" font-size="5px" font-weight="bold" font-family="'Helvetica Neue', Helvetica, Arial-Unicode, Arial, Sans-serif">Created by Flatart</text><text x="0" y="532" fill="#000000" font-size="5px" font-weight="bold" font-family="'Helvetica Neue', Helvetica, Arial-Unicode, Arial, Sans-serif">from the Noun Project</text></svg>