<svg xmlns="http://www.w3.org/2000/svg" xmlns:xlink="http://www.w3.org/1999/xlink" version="1.1" x="0px" y="0px" viewBox="0 0 512 640" enable-background="new 0 0 512 512" xml:space="preserve"><g><g><g><path d="M300.414,445.848c-2.181,0-4.208-1.188-5.266-3.127l-84.008-154.015L57.127,204.7c-2.085-1.138-3.303-3.398-3.106-5.765     c0.197-2.367,1.772-4.396,4.017-5.172l367.695-127.28c2.169-0.751,4.581-0.198,6.205,1.427c1.625,1.625,2.18,4.034,1.428,6.206     L306.086,441.811c-0.777,2.244-2.805,3.819-5.172,4.017C300.747,445.841,300.58,445.848,300.414,445.848z M74.787,200.663     l143.649,78.354c1.012,0.552,1.843,1.383,2.395,2.395l78.355,143.65L417.984,81.863L74.787,200.663z"/></g><g><path d="M215.563,290.284c-1.536,0-3.071-0.586-4.243-1.758c-2.343-2.343-2.343-6.142,0-8.484L416.382,74.98     c2.342-2.343,6.143-2.343,8.484,0c2.344,2.343,2.344,6.142,0,8.485L219.806,288.526     C218.634,289.698,217.099,290.284,215.563,290.284z"/></g></g></g><text x="0" y="527" fill="#000000" font-size="5px" font-weight="bold" font-family="'Helvetica Neue', Helvetica, Arial-Unicode, Arial, Sans-serif">Created by Flatart</text><text x="0" y="532" fill="#000000" font-size="5px" font-weight="bold" font-family="'Helvetica Neue', Helvetica, Arial-Unicode, Arial, Sans-serif">from the Noun Project</text></svg>