<svg xmlns="http://www.w3.org/2000/svg" viewBox="0 0 36 32.22"><g id="Capa_2" data-name="Capa 2"><g id="Capa_1-2" data-name="Capa 1"><path d="M18,32.22a.47.47,0,0,1-.33-.14c-2.14-2.14-4.26-4-6.3-5.86a64,64,0,0,1-8-8A14.35,14.35,0,0,1,0,9.24,9.24,9.24,0,0,1,9.24,0C13.72,0,16,2.27,18,6c2-3.73,4.28-6,8.76-6A9.25,9.25,0,0,1,36,9.24a14.3,14.3,0,0,1-3.37,9,63.29,63.29,0,0,1-8,8c-2.05,1.83-4.16,3.73-6.31,5.87A.48.48,0,0,1,18,32.22ZM9.24,1A8.28,8.28,0,0,0,1,9.24C1,15.63,5.83,20,12,25.51,14,27.25,16,29,18,31.06c2.05-2,4.06-3.82,6-5.56C30.17,20,35,15.63,35,9.24A8.29,8.29,0,0,0,26.75,1c-3.82,0-6,1.65-8.33,6.3a.47.47,0,0,1-.85,0C15.24,2.61,13.06,1,9.24,1Z"/></g></g></svg>