<svg xmlns="http://www.w3.org/2000/svg" viewBox="0 0 36 36"><g id="Capa_2" data-name="Capa 2"><g id="Capa_1-2" data-name="Capa 1"><path d="M23.36,36a.57.57,0,0,1-.5-.3l-8-14.6-14.6-8a.57.57,0,0,1,.08-1L35.24,0a.56.56,0,0,1,.59.14A.56.56,0,0,1,36,.76L23.9,35.62a.57.57,0,0,1-.49.38ZM2,12.75l13.62,7.43a.51.51,0,0,1,.23.23L23.25,34,34.51,1.49Z"/><path d="M15.32,21.25a.56.56,0,0,1-.4-.17.55.55,0,0,1,0-.8L34.36.84a.55.55,0,0,1,.8,0,.55.55,0,0,1,0,.8L15.72,21.08A.58.58,0,0,1,15.32,21.25Z"/></g></g></svg>